<svg id="visual" viewBox="0 0 960 30" width="960" height="30" xmlns="http://www.w3.org/2000/svg" xmlns:xlink="http://www.w3.org/1999/xlink" version="1.1"><path d="M0 25L12.3 22.3C24.7 19.7 49.3 14.3 74 14.7C98.7 15 123.3 21 148 21C172.7 21 197.3 15 221.8 12.7C246.3 10.3 270.7 11.7 295.2 12.2C319.7 12.7 344.3 12.3 369 10.7C393.7 9 418.3 6 443 5.5C467.7 5 492.3 7 517 10.3C541.7 13.7 566.3 18.3 591 19.3C615.7 20.3 640.3 17.7 664.8 15.3C689.3 13 713.7 11 738.2 9.7C762.7 8.3 787.3 7.7 812 9.3C836.7 11 861.3 15 886 15.5C910.7 16 935.3 13 947.7 11.5L960 10L960 31L947.7 31C935.3 31 910.7 31 886 31C861.3 31 836.7 31 812 31C787.3 31 762.7 31 738.2 31C713.7 31 689.3 31 664.8 31C640.3 31 615.7 31 591 31C566.3 31 541.7 31 517 31C492.3 31 467.7 31 443 31C418.3 31 393.7 31 369 31C344.3 31 319.7 31 295.2 31C270.7 31 246.3 31 221.8 31C197.3 31 172.7 31 148 31C123.3 31 98.7 31 74 31C49.3 31 24.7 31 12.3 31L0 31Z" fill="#6600FF" stroke-linecap="round" stroke-linejoin="miter"></path></svg>