<svg id="visual" viewBox="0 0 900 600" width="900" height="600" xmlns="http://www.w3.org/2000/svg" xmlns:xlink="http://www.w3.org/1999/xlink" version="1.1"><path d="M0 510L21.5 512.8C43 515.7 86 521.3 128.8 518.7C171.7 516 214.3 505 257.2 506.7C300 508.3 343 522.7 385.8 529C428.7 535.3 471.3 533.7 514.2 531.5C557 529.3 600 526.7 642.8 530.2C685.7 533.7 728.3 543.3 771.2 539.3C814 535.3 857 517.7 878.5 508.8L900 500L900 601L878.5 601C857 601 814 601 771.2 601C728.3 601 685.7 601 642.8 601C600 601 557 601 514.2 601C471.3 601 428.7 601 385.8 601C343 601 300 601 257.2 601C214.3 601 171.7 601 128.8 601C86 601 43 601 21.5 601L0 601Z" fill="#3b3b3b"></path><path d="M0 543L21.5 547C43 551 86 559 128.8 563C171.7 567 214.3 567 257.2 566.8C300 566.7 343 566.3 385.8 559.8C428.7 553.3 471.3 540.7 514.2 533C557 525.3 600 522.7 642.8 527.2C685.7 531.7 728.3 543.3 771.2 547.8C814 552.3 857 549.7 878.5 548.3L900 547L900 601L878.5 601C857 601 814 601 771.2 601C728.3 601 685.7 601 642.8 601C600 601 557 601 514.2 601C471.3 601 428.7 601 385.8 601C343 601 300 601 257.2 601C214.3 601 171.7 601 128.8 601C86 601 43 601 21.5 601L0 601Z" fill="#494574"></path><path d="M0 564L21.5 562.5C43 561 86 558 128.8 555.3C171.7 552.7 214.3 550.3 257.2 548.7C300 547 343 546 385.8 550.3C428.7 554.7 471.3 564.3 514.2 563.5C557 562.7 600 551.3 642.8 550.5C685.7 549.7 728.3 559.3 771.2 563.8C814 568.3 857 567.7 878.5 567.3L900 567L900 601L878.5 601C857 601 814 601 771.2 601C728.3 601 685.7 601 642.8 601C600 601 557 601 514.2 601C471.3 601 428.7 601 385.8 601C343 601 300 601 257.2 601C214.3 601 171.7 601 128.8 601C86 601 43 601 21.5 601L0 601Z" fill="#4e4fb1"></path><path d="M0 566L21.5 567.3C43 568.7 86 571.3 128.8 574.2C171.7 577 214.3 580 257.2 583C300 586 343 589 385.8 585C428.7 581 471.3 570 514.2 569.7C557 569.3 600 579.7 642.8 582.5C685.7 585.3 728.3 580.7 771.2 576.7C814 572.7 857 569.3 878.5 567.7L900 566L900 601L878.5 601C857 601 814 601 771.2 601C728.3 601 685.7 601 642.8 601C600 601 557 601 514.2 601C471.3 601 428.7 601 385.8 601C343 601 300 601 257.2 601C214.3 601 171.7 601 128.8 601C86 601 43 601 21.5 601L0 601Z" fill="#4359f3"></path></svg>