<svg id="visual" viewBox="0 0 900 600" width="900" height="600" xmlns="http://www.w3.org/2000/svg" xmlns:xlink="http://www.w3.org/1999/xlink" version="1.1"><path d="M0 466L21.5 470.2C43 474.3 86 482.7 128.8 478.7C171.7 474.7 214.3 458.3 257.2 460.8C300 463.3 343 484.7 385.8 494.2C428.7 503.7 471.3 501.3 514.2 498.2C557 495 600 491 642.8 496.2C685.7 501.3 728.3 515.7 771.2 509.7C814 503.7 857 477.3 878.5 464.2L900 451L900 601L878.5 601C857 601 814 601 771.2 601C728.3 601 685.7 601 642.8 601C600 601 557 601 514.2 601C471.3 601 428.7 601 385.8 601C343 601 300 601 257.2 601C214.3 601 171.7 601 128.8 601C86 601 43 601 21.5 601L0 601Z" fill="#0046ff"></path><path d="M0 515L21.5 521.2C43 527.3 86 539.7 128.8 545.8C171.7 552 214.3 552 257.2 551.7C300 551.3 343 550.7 385.8 540.8C428.7 531 471.3 512 514.2 500.3C557 488.7 600 484.3 642.8 491.2C685.7 498 728.3 516 771.2 522.7C814 529.3 857 524.7 878.5 522.3L900 520L900 601L878.5 601C857 601 814 601 771.2 601C728.3 601 685.7 601 642.8 601C600 601 557 601 514.2 601C471.3 601 428.7 601 385.8 601C343 601 300 601 257.2 601C214.3 601 171.7 601 128.8 601C86 601 43 601 21.5 601L0 601Z" fill="#262cc3"></path><path d="M0 546L21.5 543.8C43 541.7 86 537.3 128.8 533.5C171.7 529.7 214.3 526.3 257.2 524C300 521.7 343 520.3 385.8 526.8C428.7 533.3 471.3 547.7 514.2 546.3C557 545 600 528 642.8 526.7C685.7 525.3 728.3 539.7 771.2 546.5C814 553.3 857 552.7 878.5 552.3L900 552L900 601L878.5 601C857 601 814 601 771.2 601C728.3 601 685.7 601 642.8 601C600 601 557 601 514.2 601C471.3 601 428.7 601 385.8 601C343 601 300 601 257.2 601C214.3 601 171.7 601 128.8 601C86 601 43 601 21.5 601L0 601Z" fill="#24148c"></path><path d="M0 549L21.5 551.2C43 553.3 86 557.7 128.8 562C171.7 566.3 214.3 570.7 257.2 575C300 579.3 343 583.7 385.8 577.8C428.7 572 471.3 556 514.2 555.5C557 555 600 570 642.8 574C685.7 578 728.3 571 771.2 565C814 559 857 554 878.5 551.5L900 549L900 601L878.5 601C857 601 814 601 771.2 601C728.3 601 685.7 601 642.8 601C600 601 557 601 514.2 601C471.3 601 428.7 601 385.8 601C343 601 300 601 257.2 601C214.3 601 171.7 601 128.8 601C86 601 43 601 21.5 601L0 601Z" fill="#180059"></path></svg>